<svg xmlns="http://www.w3.org/2000/svg" viewBox="0 0 91.64 87.83"><defs><style>.cls-1{fill:#5697c1;fill-rule:evenodd;}</style></defs><title>注册用户</title><g id="图层_2" data-name="图层 2"><g id="图层_1-2" data-name="图层 1"><path class="cls-1" d="M23,33.51V21c0-7.38,5.74-13.37,12.8-13.37s12.8,6,12.8,13.37v12.5c0,7.37-5.74,13.37-12.8,13.37S23,40.88,23,33.51ZM44.07,78.18,7.34,78.08V65.74a2.09,2.09,0,0,1,1-1.52c.16-.08,16.1-7.34,28.29-7.34h3.78a3.75,3.75,0,0,0,3.67-3.82,3.7,3.7,0,0,0-.08-.41A21.08,21.08,0,0,0,55.89,33.51V21c0-11.59-9-21-20.13-21S15.63,9.42,15.63,21v12.5a21.27,21.27,0,0,0,8.75,17.31A108.9,108.9,0,0,0,5.51,57.18,9.68,9.68,0,0,0,0,65.74V79.31a3.94,3.94,0,0,0,.19,1.23,7.4,7.4,0,0,0,6.93,5.27H44.07a3.82,3.82,0,0,0,0-7.64Z"/><path class="cls-1" d="M69.65,80.19C61.56,80.19,55,73.34,55,64.91s6.58-15.27,14.66-15.27,14.66,6.85,14.66,15.27S77.74,80.19,69.65,80.19Zm0-38.18c-12.13,0-22,10.28-22,22.91s9.86,22.91,22,22.91,22-10.28,22-22.91S81.78,42,69.65,42Z"/><path class="cls-1" d="M76.9,62.1H72.22V57.28a2.57,2.57,0,1,0-5.13,0V62.1H62.24a2.68,2.68,0,0,0,0,5.35h4.84v5.1a2.57,2.57,0,1,0,5.13,0v-5.1H76.9a2.68,2.68,0,0,0,0-5.35Z"/></g></g></svg>