<svg xmlns="http://www.w3.org/2000/svg" viewBox="0 0 69.35 69.19" fill="#000"><defs><style>.cls-1{fill:#ccc;}</style></defs><title>新增优惠券</title><g id="图层_2" data-name="图层 2"><g id="图层_1-2" data-name="图层 1"><path class="cls-1" d="M23.69,17.38a7.07,7.07,0,1,1-7.07-7.07,7.08,7.08,0,0,1,7.07,7.07Zm-4.72,0a2.35,2.35,0,1,0-2.35,2.35A2.35,2.35,0,0,0,19,17.38Zm0,0M42.74,9.25,66.91,33.8a8.3,8.3,0,0,1,2.44,5.94,8.18,8.18,0,0,1-2.41,5.88L45,67a9,9,0,0,1-11.86,0L5.9,40.31C1.2,35.75,0,33.92,0,27.73V16C0,4.94,2.25,0,15.58,0h11c6.76,0,10.7,3.87,16.16,9.25ZM41.3,63.14,63.22,41.8A2.86,2.86,0,0,0,64,39.74a2.93,2.93,0,0,0-.87-2.16L41.2,15.23,39,13.06C33.55,7.7,31,5.33,26.56,5.33h-11C6,5.33,5.33,6.8,5.33,16V27.72c0,4.22.12,4.73,4.29,8.76L36.86,63.14a3.15,3.15,0,0,0,2.21.81,3.19,3.19,0,0,0,2.22-.81Zm0,0"/></g></g></svg>