<svg xmlns="http://www.w3.org/2000/svg" viewBox="0 0 99 76.92"><defs><style>.cls-1{fill:#231815;}</style></defs><title>银行帐号</title><g id="图层_2" data-name="图层 2"><g id="图层_1-2" data-name="图层 1"><path class="cls-1" d="M99,25.61H0V12A12,12,0,0,1,12,0H87A12,12,0,0,1,99,12Zm-92-7H92V12a5,5,0,0,0-5-5H12a5,5,0,0,0-5,5Z"/><path class="cls-1" d="M87,76.92H12a12,12,0,0,1-12-12V24.21H99V64.92A12,12,0,0,1,87,76.92ZM7,31.21V64.92a5,5,0,0,0,5,5H87a5,5,0,0,0,5-5V31.21Z"/><rect class="cls-1" x="16.65" y="39.45" width="48.97" height="7.01"/><rect class="cls-1" x="16.91" y="54.17" width="48.71" height="7.01"/></g></g></svg>