<svg xmlns="http://www.w3.org/2000/svg" viewBox="0 0 89.12 89.12"><defs><style>.cls-1{fill:#fc9808;}</style></defs><title>充值失败</title><g id="图层_2" data-name="图层 2"><g id="图层_1-2" data-name="图层 1"><path class="cls-1" d="M0,44.56a44.56,44.56,0,1,0,88.58-7,3.34,3.34,0,0,0-3.3-2.81h0A3.35,3.35,0,0,0,82,38.64a37.95,37.95,0,1,1-8.22-18.19,3.37,3.37,0,0,0,2.6,1.23h0a3.35,3.35,0,0,0,2.59-5.48A44.56,44.56,0,0,0,0,44.56Z"/><path class="cls-1" d="M82.44,44.56"/><path class="cls-1" d="M26.88,26.88a3.72,3.72,0,0,0,.36,5.21L39.72,44.56,27.24,57a3.72,3.72,0,0,0-.36,5.21,3.72,3.72,0,0,0,5.21-.36L44.56,49.41,57,61.89A3.46,3.46,0,1,0,61.89,57L49.41,44.56,61.89,32.09a3.72,3.72,0,0,0,.36-5.21,3.72,3.72,0,0,0-5.21.36L44.56,39.72,32.09,27.24a3.72,3.72,0,0,0-5.21-.36Zm0,0"/></g></g></svg>