<?xml version="1.0" standalone="no"?><!DOCTYPE svg PUBLIC "-//W3C//DTD SVG 1.1//EN" "http://www.w3.org/Graphics/SVG/1.1/DTD/svg11.dtd"><svg t="1511231268407" class="icon" style="" viewBox="0 0 1024 1024" version="1.1" xmlns="http://www.w3.org/2000/svg" p-id="6175" xmlns:xlink="http://www.w3.org/1999/xlink" width="64" height="64"><defs><style type="text/css"></style></defs><path d="M772.431 140.748a64.607 64.607 0 0 0-5.019-3.201c-1.062-0.668-3.3-1.772-3.3-1.772a63.712 63.712 0 0 0-28.52-6.707c-35.346 0-64 28.654-64 64 0 25.015 15.241 46.015 35.065 57.615C801.494 313.747 864 421.572 864 544c0 194.405-157.596 352-352 352S160 738.405 160 544c0-122.428 62.505-230.253 157.342-293.316 20.492-11.767 34.953-32.636 34.953-57.615 0-35.346-28.654-64-64-64a63.717 63.717 0 0 0-28.43 6.661s-1.426 0.655-2.094 1.074a63.87 63.87 0 0 0-7.551 4.826C118.851 227.271 32 375.485 32 544c0 265.097 214.903 480 480 480s480-214.903 480-480c0-169.092-87.445-317.747-219.569-403.252z" fill="#ffffff" p-id="6176"></path><path d="M512 640c35.347 0 64-28.654 64-64V64c0-35.346-28.653-64-64-64-35.346 0-64 28.654-64 64v512c0 35.346 28.654 64 64 64z" fill="#ffffff" p-id="6177"></path></svg>