<svg xmlns="http://www.w3.org/2000/svg" xmlns:xlink="http://www.w3.org/1999/xlink" viewBox="0 0 74.95 74.89"><defs><style>.cls-1{fill:none;}.cls-2{clip-path:url(#clip-path);}</style><clipPath id="clip-path"><rect class="cls-1" y="-0.02" width="75" height="75"/></clipPath></defs><title>复制</title><g id="图层_2" data-name="图层 2"><g id="图层_1-2" data-name="图层 1"><g class="cls-2"><path d="M51.54,65.53a4.68,4.68,0,0,1-4.69,4.68H9.37a4.68,4.68,0,0,1-4.69-4.68V28.09a4.68,4.68,0,0,1,4.69-4.68h4.68V18.73H9.37A9.36,9.36,0,0,0,0,28.09V65.53a9.35,9.35,0,0,0,9.37,9.36H46.84a9.35,9.35,0,0,0,9.37-9.35V60.85H51.52v4.68ZM65.59,0H28.11a9.36,9.36,0,0,0-9.37,9.36V46.8a9.36,9.36,0,0,0,9.37,9.35H65.59A9.36,9.36,0,0,0,75,46.8V9.36A9.36,9.36,0,0,0,65.59,0Zm4.69,46.8a4.68,4.68,0,0,1-4.68,4.68H28.11a4.68,4.68,0,0,1-4.68-4.68V9.36a4.68,4.68,0,0,1,4.68-4.68H65.59a4.68,4.68,0,0,1,4.68,4.68Zm0,0"/></g></g></g></svg>