<svg xmlns="http://www.w3.org/2000/svg" xmlns:xlink="http://www.w3.org/1999/xlink" viewBox="0 0 81.78 81.31"><defs><style>.cls-1{fill:none;}.cls-2{clip-path:url(#clip-path);}.cls-3{fill:#ccc;}</style><clipPath id="clip-path"><rect class="cls-1" y="-0.12" width="81.82" height="81.56"/></clipPath></defs><title>创建用户白名单</title><g id="图层_2" data-name="图层 2"><g id="图层_1-2" data-name="图层 1"><g class="cls-2"><path class="cls-3" d="M65.47,75.28,54.14,64.05A3.44,3.44,0,0,0,49.22,64a3.54,3.54,0,0,0,0,5l11.26,11.3a3.54,3.54,0,1,0,5-5m-5.61-21,0-.34a3.66,3.66,0,0,0-.89-2.39h0l0,0a3.7,3.7,0,0,0-1.34-1,36.81,36.81,0,0,0-6.35-3.52,25.79,25.79,0,1,0-29.1,0A36.88,36.88,0,0,0,.2,75.82,3.67,3.67,0,0,0,0,77l0,.28H0v0a3.68,3.68,0,1,0,7.35,0v0h.07a29.45,29.45,0,0,1,27.62-25.8c.53,0,1.06.05,1.6.05s1.07,0,1.6-.05a29.27,29.27,0,0,1,15.06,5.12,3.7,3.7,0,0,0,1.48,1.09l.14.1v-.05a3.68,3.68,0,0,0,4.91-3.46M36.67,44.21A18.42,18.42,0,1,1,55.08,25.79,18.42,18.42,0,0,1,36.67,44.21m0,0,0,0"/><path class="cls-3" d="M65.53,80.27,80.71,65a3.44,3.44,0,0,0,.08-4.92,3.54,3.54,0,0,0-5,0L60.53,75.27a3.54,3.54,0,1,0,5,5"/></g></g></g></svg>