<svg xmlns="http://www.w3.org/2000/svg" viewBox="0 0 84.13 84.13"><defs><style>.cls-1{fill:#fc9808;}</style></defs><title>通过打款中</title><g id="图层_2" data-name="图层 2"><g id="图层_1-2" data-name="图层 1"><path class="cls-1" d="M43.67,46,42.56,18.73a2.1,2.1,0,0,0-2.08-2H40a2.11,2.11,0,0,0-2.08,2L36.74,46.62a3.43,3.43,0,0,0,1.2,2.77,3.57,3.57,0,0,0,1.87,2.15l17.4,8.3A2.2,2.2,0,0,0,60,58.95l-.21.37a2.19,2.19,0,0,0-.64-2.87Zm40.46-3.37c0,22.72-18.83,41.54-42.58,41.54A41.85,41.85,0,0,1,0,42.58C0,18.83,18.83,0,41.54,0A42.29,42.29,0,0,1,84.13,42.58Zm0,0"/></g></g></svg>