<svg xmlns="http://www.w3.org/2000/svg" viewBox="0 0 87.38 87.99"><title>导出</title><g id="图层_2" data-name="图层 2"><g id="图层_1-2" data-name="图层 1"><path d="M53.15,80.66a3.67,3.67,0,0,1,0,7.33H14.64A14.64,14.64,0,0,1,0,73.3V3.67a3.67,3.67,0,0,1,7.33,0V73.3a7.31,7.31,0,0,0,7.31,7.36ZM4.18,7.33A3.67,3.67,0,1,1,4.18,0H71.4A14.65,14.65,0,0,1,86,14.67V27.44a3.67,3.67,0,1,1-7.33,0V14.67A7.32,7.32,0,0,0,71.4,7.33ZM86,50.35A4.69,4.69,0,0,1,86,57L66.13,76.84a4.68,4.68,0,0,1-6.62-6.62L79.39,50.34a4.66,4.66,0,0,1,6.61,0ZM59.52,30.41a4.69,4.69,0,0,1,6.61,0L86,50.28a4.68,4.68,0,0,1-6.62,6.62L59.52,37a4.66,4.66,0,0,1,0-6.61ZM80.17,48.75a4.68,4.68,0,0,1,0,9.36H25.29a4.68,4.68,0,0,1,0-9.36ZM78.73,62.33"/></g></g></svg>