<svg xmlns="http://www.w3.org/2000/svg" xmlns:xlink="http://www.w3.org/1999/xlink" viewBox="0 0 80.45 80.45"><defs><style>.cls-1{fill:none;}.cls-2{clip-path:url(#clip-path);}.cls-3{fill:#e23e05;}</style><clipPath id="clip-path"><rect class="cls-1" x="0.01" y="-0.01" width="80.45" height="80.57"/></clipPath></defs><title>打款失败</title><g id="图层_2" data-name="图层 2"><g id="图层_1-2" data-name="图层 1"><g class="cls-2"><path class="cls-3" d="M40.23,0A40.23,40.23,0,1,0,80.45,40.23,40.23,40.23,0,0,0,40.23,0Zm0,73.47A33.24,33.24,0,1,1,73.47,40.23,33.24,33.24,0,0,1,40.23,73.47Zm0-1"/></g><path class="cls-3" d="M40.22,50.33a4.59,4.59,0,1,0,4.59,4.59,4.56,4.56,0,0,0-4.59-4.59Zm0,0"/><path class="cls-3" d="M43.48,47.42l2.19-26.48H34.78L37,47.42Zm0,0"/></g></g></svg>