<svg xmlns="http://www.w3.org/2000/svg" xmlns:xlink="http://www.w3.org/1999/xlink" viewBox="0 0 83.35 80.62"><defs><style>.cls-1{fill:none;}.cls-2{clip-path:url(#clip-path);}</style><clipPath id="clip-path"><rect class="cls-1" x="0.01" y="-0.1" width="83.39" height="80.83"/></clipPath></defs><title>编辑</title><g id="图层_2" data-name="图层 2"><g id="图层_1-2" data-name="图层 1"><g class="cls-2"><path d="M26,44.66a.68.68,0,0,0-.13.23L21.65,60.26a2.62,2.62,0,0,0,3.2,3.2L40.12,59.3l.05,0a.66.66,0,0,0,.48-.2L81.48,18.31a6.53,6.53,0,0,0,1.88-4.67A8,8,0,0,0,81,8.05L77.12,4.19a8,8,0,0,0-5.59-2.38,6.54,6.54,0,0,0-4.67,1.88L26,44.52s0,.1-.06.14m51.5-30.35-4.05,4.05-6.57-6.68,4-4a1.9,1.9,0,0,1,2.58.19l3.86,3.86a2.1,2.1,0,0,1,.63,1.47,1.55,1.55,0,0,1-.44,1.11m-44.24,31L62.7,15.84l6.58,6.68-29.4,29.4ZM27.87,57.24,30,49.43l5.68,5.68ZM80.07,30.49a2.83,2.83,0,0,0-2.82,2.82V71.37A3.62,3.62,0,0,1,73.63,75H9.25a3.62,3.62,0,0,1-3.62-3.62V9.25A3.63,3.63,0,0,1,9.25,5.63H50.72a2.82,2.82,0,0,0,0-5.63H8.83A8.83,8.83,0,0,0,0,8.82v63a8.83,8.83,0,0,0,8.83,8.82H74.06a8.83,8.83,0,0,0,8.83-8.82V33.29a2.82,2.82,0,0,0-2.81-2.8"/></g></g></g></svg>