<svg xmlns="http://www.w3.org/2000/svg" viewBox="0 0 74.54 74.54"><defs><style>.cls-1{fill:#999;}</style></defs><title>放大展示</title><g id="图层_2" data-name="图层 2"><g id="图层_1-2" data-name="图层 1"><path class="cls-1" d="M37.27,6.79A30.48,30.48,0,1,0,67.75,37.27,30.48,30.48,0,0,0,37.27,6.79ZM56.52,38.74H38.74V56.52H35.8V38.74H18V35.8H35.8V18h2.95V35.8H56.52Zm0,0"/><path class="cls-1" d="M37.27,74.54A37.28,37.28,0,0,1,22.76,2.93a37.28,37.28,0,0,1,29,68.68A37,37,0,0,1,37.27,74.54Zm0-72.69A35.42,35.42,0,1,0,72.69,37.27,35.46,35.46,0,0,0,37.27,1.84Z"/></g></g></svg>