<?xml version="1.0" standalone="no"?><!DOCTYPE svg PUBLIC "-//W3C//DTD SVG 1.1//EN" "http://www.w3.org/Graphics/SVG/1.1/DTD/svg11.dtd"><svg t="1511231567859" class="icon" style="" viewBox="0 0 1024 1024" version="1.1" xmlns="http://www.w3.org/2000/svg" p-id="17307" xmlns:xlink="http://www.w3.org/1999/xlink" width="64" height="64"><defs><style type="text/css"></style></defs><path d="M121.895 238.449c-25.438 0-46.040 16.907-46.040 37.787v32.4c0 20.885 20.601 37.813 46.040 37.813h785.065c25.438 0 46.040-16.928 46.040-37.813v-32.4c0-20.885-20.601-37.787-46.040-37.787h-785.065zM121.895 470.086c-25.438 0-46.040 16.907-46.040 37.787v32.4c0 20.885 20.601 37.808 46.040 37.808h785.065c25.438 0 46.040-16.928 46.040-37.808v-32.4c0-20.885-20.601-37.787-46.040-37.787h-785.065zM121.895 701.72c-25.438 0-46.040 16.92-46.040 37.8v32.387c0 20.885 20.601 37.808 46.040 37.808h785.065c25.438 0 46.040-16.928 46.040-37.808v-32.387c0-20.885-20.601-37.8-46.040-37.8h-785.065z" fill="#ffffff" p-id="17308"></path></svg>