<?xml version="1.0" standalone="no"?><!DOCTYPE svg PUBLIC "-//W3C//DTD SVG 1.1//EN" "http://www.w3.org/Graphics/SVG/1.1/DTD/svg11.dtd"><svg t="1511258895542" class="icon" style="" viewBox="0 0 1024 1024" version="1.1" xmlns="http://www.w3.org/2000/svg" p-id="8771" xmlns:xlink="http://www.w3.org/1999/xlink" width="64" height="64"><defs><style type="text/css"></style></defs><path d="M512 85.333333C276.48 85.333333 85.333333 276.48 85.333333 512s191.146667 426.666667 426.666667 426.666667 426.666667-191.146667 426.666667-426.666667S747.52 85.333333 512 85.333333z m60.16 686.506667V853.333333h-113.92v-82.346666c-72.96-15.36-134.826667-62.293333-139.52-145.066667h83.626667c4.266667 44.8 34.986667 79.786667 113.066666 79.786667 83.626667 0 102.4-41.813333 102.4-67.84 0-35.413333-18.773333-68.693333-113.92-91.306667-105.813333-25.6-178.346667-69.12-178.346666-156.586667 0-73.386667 59.306667-121.173333 132.693333-136.96V170.666667h113.92v83.2c79.36 19.2 119.04 79.36 121.6 144.64H610.133333c-2.133333-47.36-27.306667-79.786667-94.72-79.786667-64 0-102.4 29.013333-102.4 69.973333 0 35.84 27.733333 59.306667 113.92 81.493334s178.346667 59.306667 178.346667 166.826666c-0.426667 78.08-58.88 120.746667-133.12 134.826667z" p-id="8772" fill="#707070"></path></svg>