<svg xmlns="http://www.w3.org/2000/svg" viewBox="0 0 88.12 83.06"><defs><style>.cls-1{fill:#ff4d0b;fill-rule:evenodd;}</style></defs><title>活跃用户</title><g id="图层_2" data-name="图层 2"><g id="图层_1-2" data-name="图层 1"><path class="cls-1" d="M62.36,83.06H6.55a6,6,0,0,1-4.93-2.34A6.54,6.54,0,0,1,.06,75.53L1.1,68A6.71,6.71,0,0,1,5,62.81a118.3,118.3,0,0,1,17.39-6c-3.63-4.15-6.75-10.9-6.75-22.58C15.64,16.61,26,13,34.59,13s18.95,3.63,18.95,21.28c0,11.68-2.86,18.69-6.49,22.58a75,75,0,0,1,17.13,6A6.71,6.71,0,0,1,68.07,68l1,7.53a6.27,6.27,0,0,1-1.56,5.19,7.34,7.34,0,0,1-5.19,2.34Zm-28-64.63c-9.6,0-13.76,4.93-13.76,16.09,0,14.28,4.67,19.73,8.82,21.8a2.46,2.46,0,0,1,1.3,2.86c-.26,1-1,2.08-2.08,2.08-9.08,1.3-18.17,4.93-21.8,6.49-.52.26-.78.52-.78,1L5,76.31a11.24,11.24,0,0,0,.26,1.3,1.35,1.35,0,0,0,1,.52H62.1c.52,0,1-.26,1-.52a1,1,0,0,0,.26-1.3l-1-7.53c0-.52-.26-1-.78-1A86.53,86.53,0,0,0,40,61.26C39,61,38,60.22,38,59.18a3,3,0,0,1,1.3-2.86c5.71-2.86,8.57-10.38,8.57-21.8.26-11.16-3.89-16.09-13.5-16.09Z"/><path class="cls-1" d="M81.57,70.08h-7a2.6,2.6,0,0,1,0-5.19h7c.52,0,1-.26,1-.52a1,1,0,0,0,.26-1.3l-1-7.53a1.16,1.16,0,0,0-.78-1A86.53,86.53,0,0,0,59.5,48c-1-.26-2.08-1-2.08-2.08a3,3,0,0,1,1.3-2.86c5.71-2.86,8.57-10.38,8.57-21.8,0-11.16-4.15-16.09-13.76-16.09-4.93,0-8.57,1.3-10.64,4.15a2.79,2.79,0,0,1-3.63.52,2.79,2.79,0,0,1-.52-3.63C41.85,2.08,47,0,53.53,0,62.1,0,72.48,3.63,72.48,21.28,72.48,33,69.63,40,66,43.86a75,75,0,0,1,17.13,6A6.71,6.71,0,0,1,87,55l1,7.53A7.12,7.12,0,0,1,86.5,68a6.14,6.14,0,0,1-4.93,2.08Z"/></g></g></svg>