<svg xmlns="http://www.w3.org/2000/svg" viewBox="0 0 56.18 65.22"><defs><style>.cls-1{fill:#008200;fill-rule:evenodd;}</style></defs><title>累计消费</title><g id="图层_2" data-name="图层 2"><g id="图层_1-2" data-name="图层 1"><path class="cls-1" d="M30.87,38.61V32.77h8.77a2.56,2.56,0,1,0,0-5.11H32l0,0,7.63-7.3a2.48,2.48,0,0,0,0-3.61,2.75,2.75,0,0,0-3.78,0L28.22,24l0,0,0,0-7.63-7.3a2.75,2.75,0,0,0-3.78,0,2.48,2.48,0,0,0,0,3.61l7.63,7.3,0,0H16.75a2.56,2.56,0,1,0,0,5.11h8.77v5.84H16.75a2.56,2.56,0,1,0,0,5.11h8.77v2.19a2.67,2.67,0,0,0,5.34,0V43.73h8.77a2.56,2.56,0,1,0,0-5.11H30.87ZM6.59,6.3,21.5,1A22.77,22.77,0,0,1,34.68,1L49.59,6.3a10.66,10.66,0,0,1,6.59,9.39v22c0,17.27-28.09,27.49-28.09,27.49S0,55,0,37.73v-22A10.61,10.61,0,0,1,6.59,6.3Z"/></g></g></svg>