<svg xmlns="http://www.w3.org/2000/svg" viewBox="0 0 88.23 88.54"><defs><style>.cls-1{fill:#30b5bf;}</style></defs><title>等待</title><g id="图层_2" data-name="图层 2"><g id="图层_1-2" data-name="图层 1"><path class="cls-1" d="M40.9,81.88A37.69,37.69,0,1,1,66.16,13.6l-2.77,3.67C62.06,19,62.78,20.43,65,20.36l9.69-.28a3.07,3.07,0,0,0,3-4l-2.4-9.39C74.76,4.48,73.23,4.21,71.9,6L70.16,8.29A44.35,44.35,0,1,0,40.61,88.54v0h.13a3.32,3.32,0,1,0,.17-6.64Zm2.47-34,23,13.3a3.33,3.33,0,0,0,3.32-5.76L48.22,43V25.47a3.32,3.32,0,0,0-6.65,0V44.93a3.29,3.29,0,0,0,1.8,2.93ZM79.84,24.11a3.33,3.33,0,1,0,4.45,1.53,3.33,3.33,0,0,0-4.45-1.53ZM84.39,35.5a3.32,3.32,0,1,0,3.8,2.76,3.33,3.33,0,0,0-3.8-2.76Zm1,12.23a3.33,3.33,0,1,0,2.76,3.81,3.32,3.32,0,0,0-2.76-3.81Zm-2.67,12a3.33,3.33,0,1,0,1.53,4.45,3.32,3.32,0,0,0-1.53-4.45ZM76.68,70.37a3.33,3.33,0,1,0,.17,4.7,3.33,3.33,0,0,0-.17-4.7Zm-9,8.39a3.32,3.32,0,1,0-1.22,4.54,3.32,3.32,0,0,0,1.22-4.54Zm-11,5.38a3.32,3.32,0,1,0-2.49,4,3.33,3.33,0,0,0,2.49-4Zm0,0"/></g></g></svg>