<?xml version="1.0" standalone="no"?><!DOCTYPE svg PUBLIC "-//W3C//DTD SVG 1.1//EN" "http://www.w3.org/Graphics/SVG/1.1/DTD/svg11.dtd"><svg t="1511231198224" class="icon" style="" viewBox="0 0 1024 1024" version="1.1" xmlns="http://www.w3.org/2000/svg" p-id="4724" xmlns:xlink="http://www.w3.org/1999/xlink" width="64" height="64"><defs><style type="text/css"></style></defs><path d="M355.962 465.429h312.076v-117.028q0-64.599-45.719-110.319t-110.319-45.719-110.319 45.719-45.719 110.319v117.028zM863.086 523.944v351.086q0 24.381-17.086 41.428t-41.428 17.086h-585.142q-24.381 0-41.428-17.086t-17.086-41.428v-351.086q0-24.381 17.086-41.428t41.428-17.086h19.505v-117.028q0-112.153 80.477-192.59t192.59-80.477 192.59 80.477 80.477 192.59v117.028h19.505q24.381 0 41.428 17.086t17.086 41.428z" p-id="4725" fill="#ffffff"></path></svg>