<svg xmlns="http://www.w3.org/2000/svg" viewBox="0 0 67.56 85.38"><defs><style>.cls-1{fill:#ff6c08;fill-rule:evenodd;}</style></defs><title>锁定</title><g id="图层_2" data-name="图层 2"><g id="图层_1-2" data-name="图层 1"><path class="cls-1" d="M41.32,55v.76a7.15,7.15,0,0,1-3.72,6.28v5.53a3.82,3.82,0,0,1-7.63,0V62.08a7.15,7.15,0,0,1-3.72-6.28V55a7.16,7.16,0,0,1,7.15-7.15h.76A7.16,7.16,0,0,1,41.32,55Zm26.24-15v37.2a8.11,8.11,0,0,1-8.11,8.11H8.11A8.11,8.11,0,0,1,0,77.27V40.07A8.11,8.11,0,0,1,8.11,32h4.3V21.46a21.46,21.46,0,0,1,42.93,0V32h4.11a8.1,8.1,0,0,1,8.11,8.11ZM18.61,32H49.14V21.46a15.26,15.26,0,0,0-30.53,0V32Zm42.75,8.11a1.91,1.91,0,0,0-1.91-1.91H8.11A1.91,1.91,0,0,0,6.2,40.07v37.2a1.91,1.91,0,0,0,1.91,1.91H59.46a1.91,1.91,0,0,0,1.91-1.91V40.07Z"/></g></g></svg>