<svg xmlns="http://www.w3.org/2000/svg" viewBox="0 0 93.87 85.73"><defs><style>.cls-1{fill:#ff4d0b;fill-rule:evenodd;}</style></defs><title>会员总数</title><g id="图层_2" data-name="图层 2"><g id="图层_1-2" data-name="图层 1"><path class="cls-1" d="M36.29,55.27C38,55.6,51.07,59,58.38,37.73c.49-1.38,6.42-16.16.89-26.8C57.89,8.5,53.1-1.25,35.8.13c0,0-19.49,1.79-18.52,23.23.57,4.63,3.57,28,19,31.91ZM51.8,61.12a107.37,107.37,0,0,0-36.22,2.19C11.12,64.61.23,67.13.07,76.31s0,9.42,0,9.42H66.91s-15.43-6-15.1-24.61Zm42.07-3.33H81.93V45.85H71.78V57.79H59.84v10H71.78v12H81.93v-12H93.87v-10Z"/></g></g></svg>