<svg xmlns="http://www.w3.org/2000/svg" viewBox="0 0 64.4 77.12"><defs><style>.cls-1{fill:#333;fill-rule:evenodd;}</style></defs><title>消息</title><g id="图层_2" data-name="图层 2"><g id="图层_1-2" data-name="图层 1"><path class="cls-1" d="M62.31,63.39"/><path class="cls-1" d="M39.35,6.85A7.16,7.16,0,0,0,25,6.85,10.1,10.1,0,0,0,25.13,8a27.12,27.12,0,0,0-18,25.44v9.45s0,13.6-3.49,13.69a3.45,3.45,0,1,0-.09,6.89H60.82a3.45,3.45,0,1,0,0-6.89c-3.58,0-3.58-13.6-3.58-13.6V33.44c0-12-7.6-22.13-18-25.44a10,10,0,0,0,.09-1.15Zm3.58,60A10.49,10.49,0,0,1,32.2,77.12,10.52,10.52,0,0,1,21.47,66.83Z"/></g></g></svg>