<?xml version="1.0" standalone="no"?><!DOCTYPE svg PUBLIC "-//W3C//DTD SVG 1.1//EN" "http://www.w3.org/Graphics/SVG/1.1/DTD/svg11.dtd"><svg t="1508985072450" class="icon" style="" viewBox="0 0 1024 1024" version="1.1" xmlns="http://www.w3.org/2000/svg" p-id="2450" xmlns:xlink="http://www.w3.org/1999/xlink" width="48" height="48"><defs><style type="text/css"></style></defs><path d="M431.994 212.614c-57.408-56.198-191.194-78.797-266.611 1.997-73.786 78.816-133.383 268.8-133.383 448.012 0 216.211 181.209 246.202 279.994 140.006 57.197-61.594 62.592-71.194 99.994-120h200.006c37.594 48.806 42.797 58.406 100.013 120 98.784 106.195 279.994 76.186 279.994-140.006 0-179.194-59.597-369.197-133.402-447.994-75.379-80.812-208.992-58.214-266.592-2.016-22.214 21.6-80.006 30.009-80.006 30.009s-57.811-8.409-80.006-30.009zM352.006 344.614v58.003h58.003c23.194 0 42.009 18.009 42.009 39.994s-18.797 39.994-42.009 39.994h-58.003v58.003c0 23.212-18.009 42.009-39.994 42.009-22.003 0-39.994-18.797-39.994-42.009v-57.984h-58.023c-23.194 0-42.009-18.009-42.009-39.994s18.797-39.994 42.009-39.994h58.003v-58.003c0-23.194 17.991-42.009 39.994-42.009 22.003 0 40.013 18.797 40.013 41.991zM712.006 372.627c0-27.612 22.385-49.997 49.997-49.997s49.997 22.385 49.997 49.997c0 27.612-22.385 49.997-49.997 49.997-27.612 0-49.997-22.385-49.997-49.997zM611.994 492.608c0-27.591 22.406-49.997 49.997-49.997s49.997 22.406 49.997 49.997c-0.773 27.021-22.861 48.63-49.997 48.63-27.136 0-49.224-21.61-49.995-48.559z" p-id="2451" fill="#fff"></path></svg>