<?xml version="1.0" standalone="no"?><!DOCTYPE svg PUBLIC "-//W3C//DTD SVG 1.1//EN" "http://www.w3.org/Graphics/SVG/1.1/DTD/svg11.dtd"><svg t="1513568047331" class="icon" style="" viewBox="0 0 1025 1024" version="1.1" xmlns="http://www.w3.org/2000/svg" p-id="2559" xmlns:xlink="http://www.w3.org/1999/xlink" width="64.0625" height="64"><defs><style type="text/css"></style></defs><path d="M944.262451 213.19168c0 18.87744 17.7664 34.14528 39.69536 34.14528 21.9392 0 39.7056-15.26784 39.7056-34.14528V39.83872c0-9.05728-4.17792-17.74592-11.62752-24.15104-7.44448-6.4-17.54112-9.99936-28.07808-9.99424h-201.5232c-21.92384 0-39.69536 15.27296-39.69536 34.14528 0 18.88256 17.77152 34.15552 39.69536 34.15552h109.06624l-347.5456 299.12576-107.55072-92.50304c-7.44448-6.40512-17.54112-10.0096-28.06784-10.0096h-0.0768c-10.55232-0.00512-20.64384 3.62496-28.07296 10.07616L11.587891 599.35744c-15.42144 13.33248-15.42144 35.0208 0.1536 48.29184 7.43936 6.36928 17.50528 9.93792 27.99104 9.93792 10.57792 0.01536 20.71552-3.61472 28.14976-10.07104l340.55168-294.4 107.44832 92.4416c14.8992 12.8 41.26208 12.8 56.13568 0l372.27008-320.39424v88.02304h-0.0256v0.00512z m-85.16096 154.14784H1025.481011V1024h-166.37952V367.33952z m-278.07744 135.02976h166.36416v521.61536h-166.36416V502.36928z m-278.07232 131.76832h166.37952v389.84704H302.951731v-389.84704zM24.864051 778.55232h166.37952V1024H24.864051v-245.44768z" fill="#ffffff" p-id="2560"></path></svg>