<svg xmlns="http://www.w3.org/2000/svg" viewBox="0 0 640 819.2"><defs><style>.cls-1{fill:#fff;fill-rule:evenodd;}</style></defs><title>权限管理</title><g id="图层_2" data-name="图层 2"><g id="图层_1-2" data-name="图层 1"><path class="cls-1" d="M300,136.76m21.58,46.53c-174.76,0-316.43,142.35-316.43,318s141.66,318,316.43,318S638,676.84,638,501.25s-141.67-318-316.42-318m162.7,289.6L421.91,534l14.73,86.31c4.94,29-11.52,41.63-37.92,27.68L321.6,607.23,244.48,648c-25.89,13.68-43,1.88-37.92-27.68L221.29,534,158.9,472.87c-20.95-20.52-15-40.49,14.48-44.79l86.22-12.6L298.15,337c12.95-26.36,33.67-26.88,46.91,0l38.56,78.5,86.2,12.6c28.94,4.22,35.84,23.88,14.48,44.79M635.44,35.73a22.2,22.2,0,0,0,4.57-13A22.66,22.66,0,0,0,617.39,0H421.74c-10.55,0-19,7.43-21.51,17.26L339.92,136.76s129.14,7.81,205.45,81.61L635.44,35.73M300,136.76,239.75,17.26C237.27,7.43,228.8,0,218.25,0H22.6A22.65,22.65,0,0,0,0,22.71a22.26,22.26,0,0,0,4.52,13L94.58,218.37C170.91,144.57,300,136.76,300,136.76"/></g></g></svg>