<svg xmlns="http://www.w3.org/2000/svg" viewBox="0 0 784.87 716.8"><defs><style>.cls-1{fill:#fafeff;fill-rule:evenodd;}</style></defs><title>用户管理</title><g id="图层_2" data-name="图层 2"><g id="图层_1-2" data-name="图层 1"><path class="cls-1" d="M303.44,462.17C317.7,464.88,427,493.4,488.14,315.5c4.07-11.54,53.64-135.12,7.47-224.08C484.06,71.05,444-10.43,299.37,1.11c0,0-163,14.94-154.82,194.2,4.75,38.7,29.88,234.26,158.89,266.85Zm129.69,48.89S285.42,490.69,130.3,529.39C92.95,540.26,2,561.31.6,638s0,78.77,0,78.77H559.44s-129-50.25-126.3-205.74Zm351.73-27.84H685.05V383.4H600.18v99.82H500.36v83.52h99.82V667.23h84.88V566.74h99.82V483.22Z"/></g></g></svg>