<svg xmlns="http://www.w3.org/2000/svg" viewBox="0 0 724.91 753.01"><defs><style>.cls-1{fill:#fff;fill-rule:evenodd;}</style></defs><title>交易管理</title><g id="图层_2" data-name="图层 2"><g id="图层_1-2" data-name="图层 1"><path class="cls-1" d="M546.68,221.1H214.21a25.79,25.79,0,0,1,0-51.57H546.68a25.79,25.79,0,0,1,0,51.57Z"/><path class="cls-1" d="M472.7,348H214.21a25.79,25.79,0,0,0,0,51.57H472.7a25.79,25.79,0,0,0,0-51.57Z"/><path class="cls-1" d="M131.63,193.94m-25.57,0a25.57,25.57,0,1,0,12.79-22.15,25.57,25.57,0,0,0-12.79,22.15"/><path class="cls-1" d="M131.63,372.34m-25.57,0a25.57,25.57,0,1,0,12.79-22.15,25.57,25.57,0,0,0-12.79,22.15"/><path class="cls-1" d="M131.63,553m-25.57,0a25.57,25.57,0,1,0,12.79-22.15A25.57,25.57,0,0,0,106.06,553"/><path class="cls-1" d="M724.15,643.2a27.4,27.4,0,0,1-.34,9.39,54.76,54.76,0,0,1-3.22,11.18A48.14,48.14,0,0,1,715.1,674a20.12,20.12,0,0,1-7.11,6.48,15.42,15.42,0,0,1-6.8,2,18.48,18.48,0,0,1-6.45-1.3,69.82,69.82,0,0,0-8.09-1.79,39.25,39.25,0,0,0-9.88-.32,47.37,47.37,0,0,0-10,2.09,19.36,19.36,0,0,0-8.56,5.5,31.79,31.79,0,0,0-9.09,18.47,36.48,36.48,0,0,0,2.92,19.75c2.15,4.33,1.83,8.63-1,12.95a24.28,24.28,0,0,1-6.14,5.33,68,68,0,0,1-9.22,5,56.93,56.93,0,0,1-10.54,3.58,42.89,42.89,0,0,1-9.73,1.3,8.26,8.26,0,0,1-5.48-2.26,12.93,12.93,0,0,1-3.56-4.86h-.34A40,40,0,0,0,594,728.57a29.74,29.74,0,0,0-19.9-7.29,30.54,30.54,0,0,0-19.88,7.29,39.33,39.33,0,0,0-12.46,17,10.94,10.94,0,0,1-4.86,5.67,14.23,14.23,0,0,1-7.09,1.77,36.26,36.26,0,0,1-10.18-1.64,93.71,93.71,0,0,1-11.33-4.05,53.87,53.87,0,0,1-10.2-5.67,28.13,28.13,0,0,1-6.79-6.46,10,10,0,0,1-1.79-5.33q-.17-3.08,2.43-8.6a32.58,32.58,0,0,0,2.75-17q-.79-9.56-8.26-17.64a21,21,0,0,0-11-6.31,43.9,43.9,0,0,0-12.29-1.13,53.21,53.21,0,0,0-13.91,2.6,13.37,13.37,0,0,1-9.07-.66q-3.56-1.27-6.63-6a69.86,69.86,0,0,1-5.5-10.37,63.66,63.66,0,0,1-3.71-11.67,27.37,27.37,0,0,1-.64-9.88q1-7.12,6.46-9.07a45.74,45.74,0,0,0,17.45-12.82,29.52,29.52,0,0,0,7.77-19.92,28.2,28.2,0,0,0-7.77-19.75,47.92,47.92,0,0,0-17.47-12.33c-1.88-.6-3.5-2.17-4.79-4.66a16.27,16.27,0,0,1-2-7.6,39.85,39.85,0,0,1,1.28-9.41,64.38,64.38,0,0,1,3.39-10,57.42,57.42,0,0,1,4.86-8.92,20.51,20.51,0,0,1,6-6,7.63,7.63,0,0,1,5-1.3,27.59,27.59,0,0,1,5.33,1.3,39.07,39.07,0,0,0,20.22,2.43,32.92,32.92,0,0,0,18.6-9.22,23.21,23.21,0,0,0,5.65-9.56,52.93,52.93,0,0,0,2.26-11.2,49.44,49.44,0,0,0,0-10c-.32-3-.6-5.18-.81-6.46a34.59,34.59,0,0,1-1.13-4.54,7,7,0,0,1,.47-4.54,18.34,18.34,0,0,1,7-7.92A53.78,53.78,0,0,1,512.32,456a73.29,73.29,0,0,1,11.33-3.43,45.85,45.85,0,0,1,8.73-1.13,8.38,8.38,0,0,1,6.63,2.75,16.49,16.49,0,0,1,3.37,5.69A38.93,38.93,0,0,0,554,475.26a29.16,29.16,0,0,0,19.09,6.65,33.26,33.26,0,0,0,20.05-6.33,33.86,33.86,0,0,0,12.29-16,20.71,20.71,0,0,1,4-5.33,8,8,0,0,1,5.67-2.75,41.05,41.05,0,0,1,9.86,1.3,60,60,0,0,1,10.5,3.58,39.8,39.8,0,0,1,9.56,5.82,31,31,0,0,1,7,7.77,7.42,7.42,0,0,1,1,5.66,20.12,20.12,0,0,1-1.28,4.37,34.53,34.53,0,0,0-2.6,19.75,32.39,32.39,0,0,0,9.37,18.15,29.19,29.19,0,0,0,19.09,8.59,41.81,41.81,0,0,0,21-3.73,9.87,9.87,0,0,1,6.3-1.3,10,10,0,0,1,6.3,2.9q4.83,4.52,8.56,13.78a78.27,78.27,0,0,1,5,18.62q.65,5.51-1.75,8.6a12.35,12.35,0,0,1-5.05,4.05,38.11,38.11,0,0,0-17.11,12.46,31.47,31.47,0,0,0-7.11,20.24,32.17,32.17,0,0,0,6,19.28,33.16,33.16,0,0,0,15.66,11.82,29,29,0,0,1,3.88,2.58,14.22,14.22,0,0,1,4.9,7.45ZM573.76,672.36a70,70,0,0,0,50-20.71,72.81,72.81,0,0,0,15-22.52,71,71,0,0,0,0-54.74A69.92,69.92,0,0,0,601.24,537a70.92,70.92,0,0,0-54.83,0,70.63,70.63,0,0,0-37.32,37.43,70.79,70.79,0,0,0,0,54.74,73.37,73.37,0,0,0,15,22.52,69.51,69.51,0,0,0,22.32,15.21,68.52,68.52,0,0,0,27.31,5.5Z"/><path class="cls-1" d="M345.12,527.28H214.21a25.79,25.79,0,0,0,0,51.57H345.12a25.79,25.79,0,0,0,0-51.57Z"/><path class="cls-1" d="M592.4,0H96.81A96.92,96.92,0,0,0,0,96.8v552a96.92,96.92,0,0,0,96.81,96.8h270a25.25,25.25,0,0,0,0-50.49h-270a46.36,46.36,0,0,1-46.31-46.31V96.8A46.36,46.36,0,0,1,96.81,50.49H592.4A46.36,46.36,0,0,1,638.72,96.8V368.6a25.25,25.25,0,1,0,50.49,0V96.8A96.92,96.92,0,0,0,592.4,0Z"/></g></g></svg>