<svg xmlns="http://www.w3.org/2000/svg" viewBox="0 0 474.84 551.22"><defs><style>.cls-1{fill:#fff;fill-rule:evenodd;}</style></defs><title>财务管理</title><g id="图层_2" data-name="图层 2"><g id="图层_1-2" data-name="图层 1"><path class="cls-1" d="M260.88,326.38V277H335c12.46,0,22.56-9.67,22.56-21.6s-10.1-21.6-22.56-21.6H270.22l.17-.16,64.48-61.72a21,21,0,0,0,0-30.55,23.28,23.28,0,0,0-31.91,0l-64.47,61.72-.16.16-.16-.16-64.47-61.73a23.28,23.28,0,0,0-31.92,0,21,21,0,0,0,0,30.55l64.47,61.72.17.16H141.6c-12.46,0-22.57,9.67-22.57,21.6S129.14,277,141.6,277h74.15v49.38H141.6C129.14,326.37,119,336,119,348s10.11,21.6,22.57,21.6h74.15v18.51c0,11.93,10.1,21.6,22.57,21.6s22.56-9.67,22.56-21.6V369.58H335c12.47,0,22.57-9.67,22.57-21.6s-10.1-21.6-22.57-21.6H260.88ZM55.66,53.24l126.09-45c30.7-11,80.59-11,111.33,0l126.09,45c30.7,11,55.66,46.51,55.66,79.36V318.86c0,146-237.42,232.36-237.42,232.36S0,464.83,0,318.86V132.6C0,99.41,24.92,64.21,55.66,53.24Z"/></g></g></svg>