<svg xmlns="http://www.w3.org/2000/svg" viewBox="0 0 638.16 639.57"><defs><style>.cls-1{fill:#fff;fill-rule:evenodd;}</style></defs><title>操作日志</title><g id="图层_2" data-name="图层 2"><g id="图层_1-2" data-name="图层 1"><path class="cls-1" d="M186.1,159.56A26.55,26.55,0,0,0,212.67,133V26.58a26.58,26.58,0,1,0-53.16,0V132.94a26.56,26.56,0,0,0,26.58,26.62Zm132.94,0A26.55,26.55,0,0,0,345.61,133V26.58a26.58,26.58,0,1,0-53.16,0V132.94A26.59,26.59,0,0,0,319,159.56ZM239.3,51h26.58v53.16H239.3V51Zm133,0h26.58v53.16H372.28V51ZM638.07,559.79V127.89a79.69,79.69,0,0,0-79.74-79.78H505.17v53.16h53.16A26.69,26.69,0,0,1,585,127.84V559.79a26.73,26.73,0,0,1-26.67,26.62H79.74a26.68,26.68,0,0,1-26.58-26.62h-.41l.41-431.9a26.61,26.61,0,0,1,26.58-26.58h53.16V48.11H79.74A79.75,79.75,0,0,0,0,127.89v431.9a79.69,79.69,0,0,0,79.74,79.78h478.6a79.52,79.52,0,0,0,79.42-75.82c0-.23.32-.5.32-.73v-2.37c0-.32.09-.59.09-.91h-.09v0ZM452,159.56A26.58,26.58,0,0,0,478.6,133V26.58a26.58,26.58,0,1,0-53.16,0V132.94A26.5,26.5,0,0,0,452,159.56Zm-293,106.77H478.14a26.58,26.58,0,1,0,0-53.16H159.06a26.58,26.58,0,0,0,0,53.16Zm319.08,78.05H159.06a26.58,26.58,0,0,0,0,53.16H478.14a26.58,26.58,0,1,0,0-53.16Zm0,136.35H159.06a26.58,26.58,0,0,0,0,53.16H478.14a26.58,26.58,0,1,0,0-53.16Z"/></g></g></svg>