<svg xmlns="http://www.w3.org/2000/svg" viewBox="0 0 664.55 627.91"><defs><style>.cls-1{fill:#fff;fill-rule:evenodd;}</style></defs><title>市场管理</title><g id="图层_2" data-name="图层 2"><g id="图层_1-2" data-name="图层 1"><path class="cls-1" d="M68.95,86.55q13.2-16.14,26.41-30.07A282.61,282.61,0,0,1,117,33q11.37-11,17.24-16.14A118.91,118.91,0,0,1,151.47,5.13Q160.64,0,176,0H492.91q9.53,0,22,4t24.21,16.5q5.87,7.34,15.4,18.34,9.2,10.61,18.34,21.27,10.27,12.47,20.54,26.4H68.95Zm595.6,219.32q0,23.47-15.4,39.61t-44,16.14H63.08q-27.87,0-44.38-16.14T2.2,305.87V201q0-23.47,14.67-40.34t47.68-16.87H604.4q33.74,0,46.94,16.87T664.55,201V305.87ZM388,253.06q0-9.54-4.77-13.57t-12.84-4H296.33a17.87,17.87,0,0,0-13.2,5.13A17,17,0,0,0,278,253.06q.73,9.54,5.5,13.94t12.84,4.4h74.08q16.87,0,17.6-18.34ZM662.35,571.4q0,23.47-18,40.34t-45.84,16.14H60.88q-23.47,0-42.18-16.5T0,565.53V467.24Q0,443,15,426.53t48-16.5H601.47q30.81,0,45.84,16.5t15,40V571.4ZM385.82,519.32a17.66,17.66,0,0,0-4.77-12.47q-4.77-5.13-12.84-5.13H294.13a17.87,17.87,0,0,0-13.2,5.13,17.71,17.71,0,0,0,0,24.94,17.87,17.87,0,0,0,13.2,5.13h74.09q8.07,0,12.84-5.13a17.67,17.67,0,0,0,4.77-12.47Z"/></g></g></svg>