<svg xmlns="http://www.w3.org/2000/svg" viewBox="0 0 584.12 577.98"><defs><style>.cls-1{fill:#fff;fill-rule:evenodd;}</style></defs><title>广告代理</title><g id="图层_2" data-name="图层 2"><g id="图层_1-2" data-name="图层 1"><path class="cls-1" d="M472,156.54l101.8-99.26a33.2,33.2,0,1,0-46-47.92L426,108.62a33.2,33.2,0,0,0,46,47.92Z"/><path class="cls-1" d="M.07,328.83a41.38,41.38,0,0,0,11.28,30.54L200,561.32c37.48,37.48,70.84,0,70.84,0L526.09,306.06a67,67,0,0,0,19.62-47.36V148c.1-.09,0,0,.1-.09l-43,43c-27.25,27.25-81.92,31.92-113.66-.85-31.23-33.28-25.2-82,2-109.23l46.08-43c-3.58,0,.46-.08-3.63-.08H308.13a67,67,0,0,0-46.75,19L12.89,300.48C3.8,310.32.57,320.25.07,328.83Z"/></g></g></svg>