<svg xmlns="http://www.w3.org/2000/svg" viewBox="0 0 702.13 702.21"><defs><style>.cls-1{fill:#fff;fill-rule:evenodd;}</style></defs><title>系统设置</title><g id="图层_2" data-name="图层 2"><g id="图层_1-2" data-name="图层 1"><path class="cls-1" d="M468.07,351.13q0-48.46-34.28-82.74t-82.74-34.28q-48.46,0-82.74,34.28T234,351.13q0,48.46,34.28,82.74t82.74,34.28q48.46,0,82.74-34.28t34.28-82.74Zm234.06-49.82V402.79a17.66,17.66,0,0,1-3.66,10.52,13.84,13.84,0,0,1-9.14,5.94l-84.58,12.8q-8.68,24.68-17.82,41.6,16,22.86,48.92,63.08,4.58,5.48,4.58,11.42a15.27,15.27,0,0,1-4.12,10.52Q624,575.59,591.05,608.05t-43,32.46q-5.48,0-11.88-4.12L473.11,587a261,261,0,0,1-41.6,17.38q-7.32,62.18-13.26,85-3.2,12.8-16.46,12.8H300.31a17.31,17.31,0,0,1-11.21-3.89,13.46,13.46,0,0,1-5.25-9.83l-12.8-84.12a282.93,282.93,0,0,1-41.14-16.92l-64.46,48.92A16.44,16.44,0,0,1,154,640.49a15.73,15.73,0,0,1-11.42-5Q85,583.35,67.2,558.67A17.92,17.92,0,0,1,64,548.15a17.66,17.66,0,0,1,3.66-10.52Q74.52,528,91,507.21T115.66,475a226.4,226.4,0,0,1-18.74-45.26L13.26,417.38a14.47,14.47,0,0,1-9.6-5.71A17.25,17.25,0,0,1,0,400.92V299.44a17.66,17.66,0,0,1,3.66-10.52q3.66-5,8.68-5.94l85-12.8a226.78,226.78,0,0,1,17.82-42.06Q96.9,202.06,66.25,165q-4.58-5.48-4.58-11,0-4.58,4.12-10.52,11.88-16.46,45-49.15T154,61.7q5.94,0,11.88,4.58L229,115.2a261.09,261.09,0,0,1,41.6-17.38q7.32-62.18,13.26-85Q287.05,0,300.31,0H401.79A17.3,17.3,0,0,1,413,3.89a13.46,13.46,0,0,1,5.25,9.83l12.8,84.12a282.94,282.94,0,0,1,41.14,16.92l64.92-48.92q4.12-4.12,11-4.12,5.94,0,11.42,4.58,59,54.4,75.42,77.72,3.2,3.66,3.2,10.06a17.67,17.67,0,0,1-3.66,10.52q-6.86,9.6-23.32,30.41t-24.68,32.23a276.18,276.18,0,0,1,18.74,44.8l83.66,12.8a14.46,14.46,0,0,1,9.6,5.71,17.26,17.26,0,0,1,3.66,10.75Z"/></g></g></svg>