<?xml version="1.0" standalone="no"?><!DOCTYPE svg PUBLIC "-//W3C//DTD SVG 1.1//EN" "http://www.w3.org/Graphics/SVG/1.1/DTD/svg11.dtd"><svg t="1511258813235" class="icon" style="" viewBox="0 0 1024 1024" version="1.1" xmlns="http://www.w3.org/2000/svg" p-id="8042" xmlns:xlink="http://www.w3.org/1999/xlink" width="64" height="64"><defs><style type="text/css"></style></defs><path d="M204.688869 458.827987c-42.431392 0-76.827783 35.70213-76.827783 79.751369l0 345.594039c0 44.045145 34.396391 79.756485 76.827783 79.756485l614.622262 0c42.427298 0 76.827783-35.71134 76.827783-79.756485L896.138914 538.580379c0-44.049239-34.400484-79.751369-76.827783-79.751369L793.700847 458.82901l-76.82369 0L307.126936 458.82901 307.126936 303.120692c0-104.874559 91.723028-163.300226 204.873064-163.300226s204.877157 58.425667 204.877157 163.300226l0 22.795169 76.82369 0 0-26.595728c0-132.126226-103.184057-239.251036-230.483348-239.251036L460.782501 60.069097c-127.290081 0-230.488465 107.124809-230.488465 239.251036l0 159.507854L204.688869 458.827987z" p-id="8043" fill="#707070"></path></svg>