<svg xmlns="http://www.w3.org/2000/svg" xmlns:xlink="http://www.w3.org/1999/xlink" viewBox="0 0 85.78 85.78"><defs><style>.cls-1{fill:none;}.cls-2{clip-path:url(#clip-path);}.cls-3{fill:#008200;}</style><clipPath id="clip-path"><rect class="cls-1" x="0.01" y="-0.02" width="85.8" height="85.92"/></clipPath></defs><title>启用</title><g id="图层_2" data-name="图层 2"><g id="图层_1-2" data-name="图层 1"><g class="cls-2"><path class="cls-3" d="M69.82,30.76,39.53,61a5.35,5.35,0,0,1-3.8,1.23A5.41,5.41,0,0,1,31.89,61L18.6,47.74a4.26,4.26,0,0,1,6-6l11.1,11.1L63.81,24.74a4.25,4.25,0,1,1,6,6ZM42.89,0A42.89,42.89,0,1,0,85.78,42.89,42.89,42.89,0,0,0,42.89,0Zm0,0"/></g></g></g></svg>