<svg xmlns="http://www.w3.org/2000/svg" viewBox="0 0 66.71 89.92"><defs><style>.cls-1{fill:#333;fill-rule:evenodd;}</style></defs><title>密码</title><g id="图层_2" data-name="图层 2"><g id="图层_1-2" data-name="图层 1"><path class="cls-1" d="M62.17,30.72H54.48C54.48,17.84,45,8,33,8s-21.47,9.83-21.47,22.7H3.84C3.84,15.27,16.92,0,33,0S62.17,15.27,62.17,30.72h0m4.54,13.16a7.86,7.86,0,0,0-7.69-8H7.69a7.86,7.86,0,0,0-7.69,8v38a7.86,7.86,0,0,0,7.69,8H59a7.86,7.86,0,0,0,7.69-8v-38h0M39.53,73.62a5.89,5.89,0,0,1-5.77,6h-.82a5.89,5.89,0,0,1-5.77-6V57.32a5.89,5.89,0,0,1,5.77-6h.82a5.89,5.89,0,0,1,5.77,6V73.62h0m0,0"/></g></g></svg>