<?xml version="1.0" standalone="no"?><!DOCTYPE svg PUBLIC "-//W3C//DTD SVG 1.1//EN" "http://www.w3.org/Graphics/SVG/1.1/DTD/svg11.dtd"><svg t="1511231753819" class="icon" style="" viewBox="0 0 1024 1024" version="1.1" xmlns="http://www.w3.org/2000/svg" p-id="30366" xmlns:xlink="http://www.w3.org/1999/xlink" width="64" height="64"><defs><style type="text/css"></style></defs><path d="M909.248 466.688l-384-383.936c-25.024-25.024-65.472-25.024-90.496 0s-25.024 65.536 0 90.496L709.568 448 128 448C92.672 448 64 476.672 64 512s28.672 64 64 64l581.44 0-274.688 274.752c-25.024 25.024-25.024 65.536 0 90.496C447.232 953.728 463.616 960 480 960s32.768-6.272 45.248-18.752l384-384.064C921.28 545.216 928 528.896 928 511.936S921.28 478.656 909.248 466.688z" p-id="30367" fill="#ffffff"></path></svg>