<svg xmlns="http://www.w3.org/2000/svg" viewBox="0 0 89.14 85.79"><defs><style>.cls-1{fill:#999;fill-rule:evenodd;}</style></defs><title>日历</title><g id="图层_2" data-name="图层 2"><g id="图层_1-2" data-name="图层 1"><path class="cls-1" d="M22.47,17.7a4.44,4.44,0,0,0,4.39-4.54c0-1.42,0-2.84,0-4.26h0V8.83c0-1.43,0-2.85,0-4.28A4.45,4.45,0,0,0,25.7,1.43a4.4,4.4,0,0,0-7.63,3q0,2.22,0,4.44t0,4.25a4.48,4.48,0,0,0,4.42,4.61ZM67,17.78a4.44,4.44,0,0,0,4.39-4.54c0-1.42,0-2.84,0-4.26h0V8.91c0-1.43,0-2.85,0-4.28a4.45,4.45,0,0,0-1.18-3.12,4.4,4.4,0,0,0-7.63,3q0,2.22,0,4.44t0,4.25A4.48,4.48,0,0,0,67,17.78ZM47.77,50.45H59.46v8.71H47.77V50.45ZM65.56,38.58H77.22V47.3H65.56V38.58Zm0,11.83H77.22v8.74H65.56V50.41ZM30,62.32H41.65V71H30V62.32Zm17.79,0H59.45V71H47.78V62.3Zm17.79,0H77.25V71H65.57v-8.7Zm-53.4,0H23.85V71H12.16v-8.7Zm0-11.87H23.86v8.72H12.19V50.46ZM47.75,38.6H59.44v8.7H47.75V38.6ZM30,50.46H41.65v8.7H30v-8.7ZM30,38.6H41.66v8.71H30V38.6Z"/><path class="cls-1" d="M87.41,8.83h-11q0,.78,0,1.57a9.59,9.59,0,0,1-8.84,9.77,5.85,5.85,0,0,1-1.54,0,9.71,9.71,0,0,1-8.64-9.91V8.83H31.77q0,.78,0,1.57a9.52,9.52,0,1,1-19-.15q0-.71,0-1.42h-11A1.73,1.73,0,0,0,0,10.56v73.5a1.73,1.73,0,0,0,1.73,1.73H87.41a1.73,1.73,0,0,0,1.73-1.73V10.56a1.73,1.73,0,0,0-1.73-1.73ZM83.93,80H5.59V32H83.85V74.83h.07V80Z"/></g></g></svg>