<svg xmlns="http://www.w3.org/2000/svg" viewBox="0 0 83.37 82.79"><defs><style>.cls-1{fill:#999;}</style></defs><title>设置</title><g id="图层_2" data-name="图层 2"><g id="图层_1-2" data-name="图层 1"><path class="cls-1" d="M79.57,17.45,67.68,29.37l-11.59-2.1L54,15.68,65.9,3.76A13,13,0,0,0,56.6,0,21.75,21.75,0,0,0,43,6.74c-4.54,4.8-9.32,13.74-5.09,23.66.5,1.2,1.07,2.78-.61,4.46S3,66.09,3,66.09c-4.08,3.51-3.79,10,0,13.8s10.29,4,13.8-.06C16.73,79.82,46.5,48,48.5,46A3.44,3.44,0,0,1,53,45.4c7.49,3.87,18.15.5,23.68-5s6.54-10.87,6.71-13.61a12.31,12.31,0,0,0-3.79-9.32ZM12.48,75.07a3.38,3.38,0,1,1,0-4.77,3.4,3.4,0,0,1,0,4.77Zm0,0"/></g></g></svg>