<svg xmlns="http://www.w3.org/2000/svg" viewBox="0 0 84.9 84.9"><defs><style>.cls-1{fill:#0aa;stroke:#0aa;stroke-miterlimit:10;stroke-width:0.5px;}</style></defs><title>申请通过打款中</title><g id="图层_2" data-name="图层 2"><g id="图层_1-2" data-name="图层 1"><path class="cls-1" d="M71.28,20H60.17a3,3,0,0,1,0-5.93H71.28V6.57c0-1.64.94-2,2.09-.87L82.7,15a3,3,0,0,1,0,4.19l-9.33,9.33c-1.16,1.16-2.09.77-2.09-.87ZM46.38,36.52H53a3,3,0,0,1,0,5.93h-7.6v5.27H53a3,3,0,0,1,0,5.93h-7.6V65a3,3,0,0,1-5.93,0V53.66H31.89a3,3,0,0,1,0-5.93h7.56V42.46H31.89a3,3,0,0,1,0-5.93h6.57l-7.89-8.17a3,3,0,1,1,4.27-4.12l7.57,7.85L50,24.24a3,3,0,1,1,4.27,4.12Zm37.85,0h0A42.2,42.2,0,1,1,49.83.9v0a3,3,0,1,1-1.45,5.75A36.26,36.26,0,1,0,78.31,37.09h0a3,3,0,0,1,5.91-.54Zm0,0"/></g></g></svg>