<?xml version="1.0" standalone="no"?><!DOCTYPE svg PUBLIC "-//W3C//DTD SVG 1.1//EN" "http://www.w3.org/Graphics/SVG/1.1/DTD/svg11.dtd"><svg t="1511231046652" class="icon" style="" viewBox="0 0 1024 1024" version="1.1" xmlns="http://www.w3.org/2000/svg" p-id="2313" xmlns:xlink="http://www.w3.org/1999/xlink" width="64" height="64"><defs><style type="text/css"></style></defs><path d="M383.8 511.8c0-36.7 12.4-67.2 37.7-92.5 25.3-25.3 55.8-37.7 92.5-37.7s67.2 12.4 92.5 37.7c25.3 25.3 37.7 55.8 37.7 92.5s-12.4 67.7-37.7 92.9c-25.3 25.3-55.8 37.7-92.5 37.7s-67.3-12.3-92.5-37.7c-25.4-25.6-37.7-56.7-37.7-92.9m-183.9 84.8c7.6 27.2 19.1 53.9 32.9 78.6L147 780.6l97.2 97.2L349.5 792c24.8 13.8 52 25.3 79.1 33.4l14.3 134.4H583l14.3-134.4c27.2-8.1 52.9-19.5 79.1-33.4l104.9 85.8 98.2-97.2-86.3-105.3c13.3-24.8 25.3-51.5 33.4-78.6L961 581.8V441.7l-134.4-14.3c-8.1-27.2-20-52.4-33.4-78.6l86.3-105.3-98.2-98.2-104.9 86.3c-26.7-13.3-51.9-25.3-79.1-33.4L583.1 63.8H442.9l-14.3 134.4c-28.1 8.1-54.3 20-79.1 33.4l-105.3-86.3-97.2 98.2 85.8 105.3c-13.3 26.2-24.8 51.5-32.9 78.6L65 441.7v140.1l134.9 14.8" p-id="2314" fill="#ffffff"></path></svg>