<svg xmlns="http://www.w3.org/2000/svg" xmlns:xlink="http://www.w3.org/1999/xlink" viewBox="0 0 79.83 79.65"><defs><style>.cls-1{fill:none;}.cls-2{clip-path:url(#clip-path);}</style><clipPath id="clip-path"><rect class="cls-1" x="0.01" y="0.01" width="79.88" height="79.75"/></clipPath></defs><title>添加收藏</title><g id="图层_2" data-name="图层 2"><g id="图层_1-2" data-name="图层 1"><g class="cls-2"><path d="M39.92,79.65a2.71,2.71,0,0,1-2-.9L7.18,45.45a28.27,28.27,0,0,1,0-37.66A24,24,0,0,1,17,1.3a23,23,0,0,1,11-1,3.05,3.05,0,0,1,2.41,3.48,2.94,2.94,0,0,1-2.81,2.65,2.66,2.66,0,0,1-.4,0,17.77,17.77,0,0,0-16,5.77,21.73,21.73,0,0,0,0,29L39.92,72.22,68.63,41.09a21.74,21.74,0,0,0,0-29,17.89,17.89,0,0,0-26.71,0L24.78,30.72a2.69,2.69,0,0,1-4,0,3.27,3.27,0,0,1,0-4.35L37.91,7.79a23.27,23.27,0,0,1,34.74,0,28.27,28.27,0,0,1,0,37.66L41.92,78.75a2.72,2.72,0,0,1-2,.9Zm0-.68a2.12,2.12,0,0,1-1.56-.7L7.63,45a27.55,27.55,0,0,1,0-36.7,23.36,23.36,0,0,1,9.53-6.32A22.44,22.44,0,0,1,27.92,1,2.37,2.37,0,0,1,29.8,3.66a2.25,2.25,0,0,1-2.5,2,18.46,18.46,0,0,0-16.54,6,22.46,22.46,0,0,0,0,29.92L39.92,73.18,69.08,41.58a22.46,22.46,0,0,0,0-29.92,18.48,18.48,0,0,0-27.6,0L24.34,30.24a2.09,2.09,0,0,1-3.13,0,2.54,2.54,0,0,1,0-3.39L38.35,8.27a22.67,22.67,0,0,1,33.85,0,27.55,27.55,0,0,1,0,36.7L41.48,78.27a2.12,2.12,0,0,1-1.56.7Zm0,0"/></g></g></g></svg>