<svg xmlns="http://www.w3.org/2000/svg" viewBox="0 0 87.7 76.26"><defs><style>.cls-1{fill:#c6c;fill-rule:evenodd;}</style></defs><title>TOP排行</title><g id="图层_2" data-name="图层 2"><g id="图层_1-2" data-name="图层 1"><path class="cls-1" d="M82.71,5.3H34.56a5,5,0,0,0-5,5h0a5,5,0,0,0,5,5H82.71a5,5,0,0,0,5-5h0a5,5,0,0,0-5-5Z"/><path class="cls-1" d="M19.07,6.4l-4.26-.62a1.05,1.05,0,0,1-.75-.57l-1.89-4a1.93,1.93,0,0,0-3.56,0l-1.88,4A1,1,0,0,1,6,5.78L1.72,6.4A2.11,2.11,0,0,0,.6,9.94L3.67,13A1.06,1.06,0,0,1,4,14l-.74,4.38a2,2,0,0,0,2.9,2.19l3.8-2.05a.87.87,0,0,1,.92,0l3.82,2.06a2,2,0,0,0,2.89-2.18L16.81,14a1.21,1.21,0,0,1,.31-.94L20.18,10A2.11,2.11,0,0,0,19.07,6.4Z"/><path class="cls-1" d="M82.71,32.8H34.56a5,5,0,0,0-5,5h0a5,5,0,0,0,5,5H82.71a5,5,0,0,0,5-5h0a5,5,0,0,0-5-5Z"/><path class="cls-1" d="M19.07,33.59,14.81,33a1.05,1.05,0,0,1-.75-.57l-1.89-4a1.93,1.93,0,0,0-3.56,0l-1.88,4A1,1,0,0,1,6,33l-4.27.62A2.11,2.11,0,0,0,.6,37.14l3.07,3.09a1.06,1.06,0,0,1,.3.92l-.74,4.38a2,2,0,0,0,2.9,2.19l3.8-2.05a.87.87,0,0,1,.92,0l3.82,2.06a2,2,0,0,0,2.89-2.18l-.74-4.38a1.21,1.21,0,0,1,.31-.94l3.06-3.08a2.11,2.11,0,0,0-1.11-3.55Z"/><path class="cls-1" d="M82.71,61.69H34.56a5,5,0,0,0-5,5h0a5,5,0,0,0,5,5H82.71a5,5,0,0,0,5-5h0a5,5,0,0,0-5-5Z"/><path class="cls-1" d="M19.07,61.88l-4.26-.62a1.05,1.05,0,0,1-.75-.57l-1.89-4a1.93,1.93,0,0,0-3.56,0l-1.88,4a1,1,0,0,1-.74.59l-4.27.62A2.11,2.11,0,0,0,.6,65.43l3.07,3.09a1.06,1.06,0,0,1,.3.92l-.74,4.38A2,2,0,0,0,6.13,76L9.93,74a.87.87,0,0,1,.92,0L14.66,76a2,2,0,0,0,2.89-2.18l-.74-4.38a1.21,1.21,0,0,1,.31-.94l3.06-3.08a2.11,2.11,0,0,0-1.11-3.55Z"/></g></g></svg>