<svg xmlns="http://www.w3.org/2000/svg" viewBox="0 0 82.27 84.27"><title>转帐</title><g id="图层_2" data-name="图层 2"><g id="图层_1-2" data-name="图层 1"><path d="M79.71,45.72a3,3,0,0,0-3.47,2.52,35.48,35.48,0,0,1-67.86,8,3,3,0,0,0-6,.42V76.89a3,3,0,0,0,6.07,0V68.26A41.56,41.56,0,0,0,82.23,49.18,3,3,0,0,0,79.71,45.72Z"/><path d="M3,38.59A3,3,0,0,0,6,36H6a35.48,35.48,0,0,1,68-7.55A3,3,0,0,0,78,30.17a3.06,3.06,0,0,0,1.91-2.88V7.06a3,3,0,0,0-6.07,0v9A41.57,41.57,0,0,0,0,35.08a3,3,0,0,0,2.52,3.46A1.3,1.3,0,0,0,3,38.59Z"/><path d="M53.83,45.08a3,3,0,1,0,0-6.06H44.14V38.9L54.06,29a3,3,0,0,0,0-4.28,3.11,3.11,0,0,0-4.3,0l-8.66,8.68-8.66-8.68a3,3,0,0,0-2.15-.89h0A3,3,0,0,0,28.13,29l9.94,10V39H28.36a3,3,0,1,0,0,6.06h9.71V50H28.36a3,3,0,1,0,0,6.06h9.7v6.55a3,3,0,0,0,6.07,0V56h9.69a3,3,0,1,0,0-6.06H44.14V45.08Z"/></g></g></svg>