<svg id="图层_1" data-name="图层 1" xmlns="http://www.w3.org/2000/svg" viewBox="0 0 93 93"><title>2</title><circle cx="46.5" cy="46.5" r="46.5" style="fill:#efefef"/><circle cx="24.92" cy="49.15" r="4.39" style="fill:#e5e5e5"/><circle cx="66.08" cy="48.56" r="4.39" style="fill:#e5e5e5"/><path d="M297.48,446a35.9,35.9,0,0,0-27,12.15,46.47,46.47,0,0,0,54.69.89A35.92,35.92,0,0,0,297.48,446Z" transform="translate(-251.98 -374.48)" style="fill:#d8d8d8"/><rect x="37.88" y="49.74" width="15.25" height="32.51" rx="7.62" ry="7.62" style="fill:#e5e5e5"/><ellipse cx="45.76" cy="47.61" rx="20.84" ry="25.51" style="fill:#fafafa"/><path d="M318.58,403.73a5.77,5.77,0,0,0-4.52-5.63c0-.07,0-.15,0-.22a6.5,6.5,0,0,0-6.49-6.49H277.84c-3.57,0-4.59,2.92-4.59,6.49,0,3.22.48,5.9,3.56,6.4v15.94l6.28-15.85h24.49a6.42,6.42,0,0,0,3-.75l8,15.06Z" transform="translate(-251.98 -374.48)" style="fill:#d8d8d8"/></svg>