<svg xmlns="http://www.w3.org/2000/svg" viewBox="0 0 72.67 83.81"><defs><style>.cls-1{fill:#008200;}</style></defs><title>通过验证</title><g id="图层_2" data-name="图层 2"><g id="图层_1-2" data-name="图层 1"><path class="cls-1" d="M36.33,83.81C23.74,83.81,0,64.92,0,47V13.08c0-.48.24-.73.48-1.21a1.85,1.85,0,0,1,1.21-.48H3.63A55.45,55.45,0,0,0,20.1,8a77.19,77.19,0,0,0,14-7.27L35.36,0h1a1.46,1.46,0,0,1,1,.24L38.51,1a65.48,65.48,0,0,0,14,7.51A55.47,55.47,0,0,0,69,11.87H71c.48,0,.73.24,1.21.48s.48.73.48,1.21V47.48c0,17.68-23.74,36.33-36.33,36.33ZM67.1,17.2a64.72,64.72,0,0,1-16.47-3.63,111.5,111.5,0,0,1-14.29-7,65.21,65.21,0,0,1-14.29,7A54.19,54.19,0,0,1,5.57,17.2V47c0,14,20.59,31,30.76,31a34.13,34.13,0,0,0,19.14-9.93A31.37,31.37,0,0,0,67.1,47ZM33.91,55a3.11,3.11,0,0,1-2.42,1,3.11,3.11,0,0,1-2.42-1l-9.93-9.93a3.25,3.25,0,1,1,4.6-4.6l7.51,7.75L50.38,29.07a3.25,3.25,0,1,1,4.6,4.6Zm0,0"/></g></g></svg>