<?xml version="1.0" standalone="no"?><!DOCTYPE svg PUBLIC "-//W3C//DTD SVG 1.1//EN" "http://www.w3.org/Graphics/SVG/1.1/DTD/svg11.dtd"><svg t="1511258677275" class="icon" style="" viewBox="0 0 1024 1024" version="1.1" xmlns="http://www.w3.org/2000/svg" p-id="1905" xmlns:xlink="http://www.w3.org/1999/xlink" width="64" height="64"><defs><style type="text/css"></style></defs><path d="M577.469084 53.612035c0 2.930749 0 5.27719 0 7.623631 0 89.525989-0.01228 179.051979 0.005117 268.577968 0.00614 30.614252 20.75879 51.248198 51.462069 51.249221 89.525989 0.00307 179.051979 0.005117 268.577968 0.008186 2.204202 0 4.408403 0 7.407714 0 0 2.046612 0 3.838422 0 5.630231 0.00307 178.028673 0.01842 356.057345-0.00614 534.087041-0.004093 27.003004-19.62599 47.756677-46.542013 49.429783-2.040473 0.12689-4.088108 0.166799-6.133697 0.166799-226.968291 0.007163-453.937606 0.00921-680.905898 0.00307-23.106254-0.001023-40.681538-10.633175-48.323589-30.145577-2.366907-6.0416-3.777023-12.885472-3.78214-19.364023-0.183172-272.500301-0.170892-545.000602-0.137123-817.499879 0.00307-28.616758 21.248953-49.750077 49.835012-49.755194 134.203538-0.021489 268.407076-0.010233 402.611637-0.010233C573.235666 53.612035 574.932308 53.612035 577.469084 53.612035zM512.512676 446.458261c-59.33641 0-118.67282-0.021489-178.008206 0.016373-13.148461 0.008186-19.003819 5.990434-19.009959 19.102057-0.004093 8.696056-0.008186 17.392112 0.00614 26.087145 0.024559 14.984273 5.387707 20.382213 20.296255 20.384259 65.814961 0.00614 131.630946 0.002047 197.445908 0.002047 51.833529 0 103.668081 0.00614 155.50161-0.001023 14.170744-0.002047 19.724227-5.607718 19.750833-19.896142 0.014326-7.331989 0.001023-14.663978 0.002047-21.994943 0-1.534959 0.00614-3.068895 0.007163-4.603855 0.005117-13.162788-5.801123-19.074428-19.005866-19.081591C630.502951 446.440865 571.507302 446.458261 512.512676 446.458261zM511.983627 577.441455c-49.622164 0-99.244328-0.001023-148.865469 0.001023-10.401908 0.001023-20.806885-0.145309-31.204699 0.072655-9.748015 0.204661-16.161075 6.442736-16.347317 15.960507-0.216941 11.079336-0.207731 22.169929 0.021489 33.248242 0.174985 8.42488 4.919033 14.238282 12.567223 15.815197 2.472308 0.509606 5.083785 0.476861 7.631818 0.476861 75.541487 0.023536 151.082974 0.020466 226.623437 0.021489 42.119283 0 84.237543 0.007163 126.356826-0.00614 14.165628-0.004093 19.716041-5.633301 19.726274-19.926842 0.00614-7.673773 0.002047-15.346523 0.004093-23.020296 0-1.364067 0.00921-2.728134 0.008186-4.092201-0.01842-12.498662-5.931083-18.524912-18.49626-18.533099C630.66668 577.420989 571.325154 577.441455 511.983627 577.441455zM512.088004 708.424648c-58.646702 0-117.29238-0.001023-175.939081 0.004093-1.874697 0-3.756557-0.039909-5.621021 0.113587-8.585539 0.707105-14.672164 6.626931-14.900362 15.244192-0.302899 11.413957-0.288572 22.846334-0.032746 34.262338 0.191358 8.541537 5.14109 13.95892 13.527085 15.440667 2.495844 0.441045 5.081739 0.5137 7.625678 0.5137 116.610858 0.022513 233.221716 0.01842 349.832574 0.01535 1.704828 0 3.414773 0.057305 5.112438-0.052189 10.983145-0.707105 16.71366-6.750751 16.788361-17.790178 0.062422-9.205663-0.001023-18.412348 0.019443-27.618011 0.032746-14.608719-5.4225-20.13048-19.962657-20.131503C629.722168 708.421578 570.904575 708.424648 512.088004 708.424648z" p-id="1906" fill="#707070"></path><path d="M643.393539 73.602322c6.751774 5.626137 12.896728 9.994632 18.162662 15.246239 69.427232 69.240991 138.76339 138.574079 208.002334 208.003358 5.334495 5.348821 9.770528 11.593036 15.393595 18.345834-81.421404 0-161.290453 0-241.558591 0C643.393539 235.207953 643.393539 155.204851 643.393539 73.602322z" p-id="1907" fill="#707070"></path></svg>