<?xml version="1.0" standalone="no"?><!DOCTYPE svg PUBLIC "-//W3C//DTD SVG 1.1//EN" "http://www.w3.org/Graphics/SVG/1.1/DTD/svg11.dtd"><svg t="1511258929149" class="icon" style="" viewBox="0 0 1024 1024" version="1.1" xmlns="http://www.w3.org/2000/svg" p-id="10086" xmlns:xlink="http://www.w3.org/1999/xlink" width="64" height="64"><defs><style type="text/css"></style></defs><path d="M1014.837087 577.626248C994.286286 556.886064 460.463062 19.178042 460.463062 19.178042L229.099156 25.982298 156.609542 98.996049C177.888403 124.552937 197.895738 150.37268 213.204503 173.431292 226.131878 166.52443 240.816919 162.582757 256.447864 162.582757 307.535936 162.582757 348.964304 204.309841 348.964304 255.789078 348.964304 307.226811 307.535936 348.93545 256.447864 348.93545 205.399922 348.93545 163.950915 307.226811 163.950915 255.789078 163.950915 244.533579 166.028467 233.828001 169.658452 223.854497 146.907417 206.667466 120.989605 183.669957 96.000501 160.06373L39.890531 216.578715 39.890531 456.747518 592.975831 1013.813429C592.975831 1013.813429 609.474716 1036.669136 632.184475 1013.813429 654.854104 990.958874 1014.837087 628.371106 1014.837087 628.371106 1014.837087 628.371106 1035.429164 598.347986 1014.837087 577.626248L1014.837087 577.626248ZM224.822516 238.320747C225.468025 238.320747 226.597379 238.259644 227.061732 237.791578 240.151918 224.586571 159.192723 116.670744 50.035225 1.604799 47.01062 1.036433 40.777963 0 33.698003 0 24.440741 0 11.996064 1.766201 5.341475 10.217913-0.28695 17.389936-1.456433 28.787238 1.85137 44.145812 71.959595 119.841145 193.338193 238.320747 224.822516 238.320747L224.822516 238.320747Z" p-id="10087" fill="#707070"></path></svg>