<svg xmlns="http://www.w3.org/2000/svg" viewBox="0 0 79.66 77.14"><defs><style>.cls-1{fill:#0968af;fill-rule:evenodd;}</style></defs><title>资源 14</title><g id="图层_2" data-name="图层 2"><g id="图层_1-2" data-name="图层 1"><path class="cls-1" d="M63,22.63H16.69a2.06,2.06,0,0,1,0-4.12H63a2.06,2.06,0,0,1,0,4.12ZM36.55,57.88H16.69a2.06,2.06,0,0,1,0-4.12H36.55a2.06,2.06,0,0,1,0,4.12ZM63,40.25H16.69a2.06,2.06,0,0,1,0-4.12H63a2.06,2.06,0,0,1,0,4.12Z"/><path class="cls-1" d="M58.28,77.14H54.15a2.06,2.06,0,0,1,0-4.12h4.12c.07,0,1-.17,3.64-2.15a61.37,61.37,0,0,0,6-5.41,65.61,65.61,0,0,0,5.38-6.09c1.94-2.54,2.2-3.54,2.22-3.66V16.34A12.24,12.24,0,0,0,63.32,4.12h-47A12.24,12.24,0,0,0,4.12,16.34V60.8A12.24,12.24,0,0,0,16.34,73h20a2.06,2.06,0,0,1,0,4.12h-20A16.36,16.36,0,0,1,0,60.8V16.34A16.36,16.36,0,0,1,16.34,0h47A16.36,16.36,0,0,1,79.66,16.34V55.76c0,.94-.32,2.45-2.84,5.82A68,68,0,0,1,71,68.26a65.34,65.34,0,0,1-6.67,6c-3.45,2.61-5.09,2.92-6,2.92Z"/><path class="cls-1" d="M53.85,76.72a2.06,2.06,0,0,1-2.06-2.06V64.29A14.67,14.67,0,0,1,66.44,49.64h9.11a2.06,2.06,0,0,1,0,4.12H66.44A10.54,10.54,0,0,0,55.91,64.29V74.66a2.06,2.06,0,0,1-2.06,2.06Z"/></g></g></svg>